<svg id="visual" viewBox="0 0 900 600" width="900" height="600" xmlns="http://www.w3.org/2000/svg" xmlns:xlink="http://www.w3.org/1999/xlink" version="1.1"><path d="M0 115L50 120C100 125 200 135 300 145C400 155 500 165 600 162C700 159 800 143 850 135L900 127L900 0L850 0C800 0 700 0 600 0C500 0 400 0 300 0C200 0 100 0 50 0L0 0Z" fill="#b2edc9"></path><path d="M0 289L50 302C100 315 200 341 300 346C400 351 500 335 600 313C700 291 800 263 850 249L900 235L900 125L850 133C800 141 700 157 600 160C500 163 400 153 300 143C200 133 100 123 50 118L0 113Z" fill="#a0e9bc"></path><path d="M0 415L50 421C100 427 200 439 300 455C400 471 500 491 600 490C700 489 800 467 850 456L900 445L900 233L850 247C800 261 700 289 600 311C500 333 400 349 300 344C200 339 100 313 50 300L0 287Z" fill="#8ee4af"></path><path d="M0 517L50 515C100 513 200 509 300 516C400 523 500 541 600 543C700 545 800 531 850 524L900 517L900 443L850 454C800 465 700 487 600 488C500 489 400 469 300 453C200 437 100 425 50 419L0 413Z" fill="#7dd69e"></path><path d="M0 601L50 601C100 601 200 601 300 601C400 601 500 601 600 601C700 601 800 601 850 601L900 601L900 515L850 522C800 529 700 543 600 541C500 539 400 521 300 514C200 507 100 511 50 513L0 515Z" fill="#6dc98e"></path></svg>