<svg id="visual" viewBox="0 0 900 600" width="900" height="600" xmlns="http://www.w3.org/2000/svg" xmlns:xlink="http://www.w3.org/1999/xlink" version="1.1"><rect x="0" y="0" width="900" height="600" fill="#fff"></rect><path d="M0 217L21.5 215.2C43 213.3 86 209.7 128.8 209.8C171.7 210 214.3 214 257.2 204.8C300 195.7 343 173.3 385.8 166.7C428.7 160 471.3 169 514.2 182.7C557 196.3 600 214.7 642.8 215.8C685.7 217 728.3 201 771.2 191.8C814 182.7 857 180.3 878.5 179.2L900 178L900 0L878.5 0C857 0 814 0 771.2 0C728.3 0 685.7 0 642.8 0C600 0 557 0 514.2 0C471.3 0 428.7 0 385.8 0C343 0 300 0 257.2 0C214.3 0 171.7 0 128.8 0C86 0 43 0 21.5 0L0 0Z" fill="#8ee4af"></path><path d="M0 122L21.5 132.2C43 142.3 86 162.7 128.8 170.8C171.7 179 214.3 175 257.2 165C300 155 343 139 385.8 133.3C428.7 127.7 471.3 132.3 514.2 142.8C557 153.3 600 169.7 642.8 170.7C685.7 171.7 728.3 157.3 771.2 158C814 158.7 857 174.3 878.5 182.2L900 190L900 0L878.5 0C857 0 814 0 771.2 0C728.3 0 685.7 0 642.8 0C600 0 557 0 514.2 0C471.3 0 428.7 0 385.8 0C343 0 300 0 257.2 0C214.3 0 171.7 0 128.8 0C86 0 43 0 21.5 0L0 0Z" fill="#85dda6"></path><path d="M0 152L21.5 149.2C43 146.3 86 140.7 128.8 136.3C171.7 132 214.3 129 257.2 131.8C300 134.7 343 143.3 385.8 145.8C428.7 148.3 471.3 144.7 514.2 137.2C557 129.7 600 118.3 642.8 120.7C685.7 123 728.3 139 771.2 136.3C814 133.7 857 112.3 878.5 101.7L900 91L900 0L878.5 0C857 0 814 0 771.2 0C728.3 0 685.7 0 642.8 0C600 0 557 0 514.2 0C471.3 0 428.7 0 385.8 0C343 0 300 0 257.2 0C214.3 0 171.7 0 128.8 0C86 0 43 0 21.5 0L0 0Z" fill="#7dd69e"></path><path d="M0 85L21.5 86.2C43 87.3 86 89.7 128.8 85.3C171.7 81 214.3 70 257.2 70.3C300 70.7 343 82.3 385.8 83.7C428.7 85 471.3 76 514.2 77.3C557 78.7 600 90.3 642.8 97.2C685.7 104 728.3 106 771.2 104.5C814 103 857 98 878.5 95.5L900 93L900 0L878.5 0C857 0 814 0 771.2 0C728.3 0 685.7 0 642.8 0C600 0 557 0 514.2 0C471.3 0 428.7 0 385.8 0C343 0 300 0 257.2 0C214.3 0 171.7 0 128.8 0C86 0 43 0 21.5 0L0 0Z" fill="#75cf96"></path><path d="M0 59L21.5 57.5C43 56 86 53 128.8 48.8C171.7 44.7 214.3 39.3 257.2 42.2C300 45 343 56 385.8 60.7C428.7 65.3 471.3 63.7 514.2 63.8C557 64 600 66 642.8 60.7C685.7 55.3 728.3 42.7 771.2 37.2C814 31.7 857 33.3 878.5 34.2L900 35L900 0L878.5 0C857 0 814 0 771.2 0C728.3 0 685.7 0 642.8 0C600 0 557 0 514.2 0C471.3 0 428.7 0 385.8 0C343 0 300 0 257.2 0C214.3 0 171.7 0 128.8 0C86 0 43 0 21.5 0L0 0Z" fill="#6dc98e"></path></svg>