<svg id="visual" viewBox="0 0 900 600" width="900" height="600" xmlns="http://www.w3.org/2000/svg" xmlns:xlink="http://www.w3.org/1999/xlink" version="1.1"><rect x="0" y="0" width="900" height="600" fill="#fff"></rect><path d="M0 80L11.5 76.7C23 73.3 46 66.7 69 67.5C92 68.3 115 76.7 138.2 83.5C161.3 90.3 184.7 95.7 207.8 89.8C231 84 254 67 277 66.7C300 66.3 323 82.7 346 91.3C369 100 392 101 415.2 92.7C438.3 84.3 461.7 66.7 484.8 67.8C508 69 531 89 554 89.7C577 90.3 600 71.7 623 67.8C646 64 669 75 692.2 79.5C715.3 84 738.7 82 761.8 75.7C785 69.3 808 58.7 831 57.3C854 56 877 64 888.5 68L900 72L900 0L888.5 0C877 0 854 0 831 0C808 0 785 0 761.8 0C738.7 0 715.3 0 692.2 0C669 0 646 0 623 0C600 0 577 0 554 0C531 0 508 0 484.8 0C461.7 0 438.3 0 415.2 0C392 0 369 0 346 0C323 0 300 0 277 0C254 0 231 0 207.8 0C184.7 0 161.3 0 138.2 0C115 0 92 0 69 0C46 0 23 0 11.5 0L0 0Z" fill="#8EE4AF" stroke-linecap="round" stroke-linejoin="miter"></path></svg>