<svg id="visual" viewBox="0 0 900 100" width="900" height="100" xmlns="http://www.w3.org/2000/svg" xmlns:xlink="http://www.w3.org/1999/xlink" version="1.1"><rect x="0" y="0" width="900" height="100" fill="#6DC98E"></rect><path d="M0 29L129 43L257 23L386 22L514 33L643 34L771 45L900 25L900 0L771 0L643 0L514 0L386 0L257 0L129 0L0 0Z" fill="#8ee4af"></path><path d="M0 15L129 31L257 23L386 34L514 35L643 29L771 32L900 35L900 0L771 0L643 0L514 0L386 0L257 0L129 0L0 0Z" fill="#85dda6"></path><path d="M0 20L129 11L257 24L386 29L514 16L643 9L771 14L900 26L900 0L771 0L643 0L514 0L386 0L257 0L129 0L0 0Z" fill="#7dd69e"></path><path d="M0 19L129 16L257 8L386 20L514 10L643 8L771 19L900 6L900 0L771 0L643 0L514 0L386 0L257 0L129 0L0 0Z" fill="#75cf96"></path><path d="M0 5L129 11L257 7L386 11L514 4L643 14L771 12L900 0L900 0L771 0L643 0L514 0L386 0L257 0L129 0L0 0Z" fill="#6dc98e"></path></svg>