<svg id="visual" viewBox="0 0 900 300" width="900" height="300" xmlns="http://www.w3.org/2000/svg" xmlns:xlink="http://www.w3.org/1999/xlink" version="1.1"><rect x="0" y="0" width="900" height="300" fill="#6DC98E"></rect><path d="M0 90L129 132L257 72L386 68L514 100L643 104L771 138L900 77L900 0L771 0L643 0L514 0L386 0L257 0L129 0L0 0Z" fill="#8ee4af"></path><path d="M0 48L129 94L257 71L386 105L514 108L643 88L771 99L900 108L900 0L771 0L643 0L514 0L386 0L257 0L129 0L0 0Z" fill="#85dda6"></path><path d="M0 61L129 34L257 74L386 89L514 49L643 28L771 45L900 81L900 0L771 0L643 0L514 0L386 0L257 0L129 0L0 0Z" fill="#7dd69e"></path><path d="M0 59L129 51L257 27L386 63L514 33L643 27L771 58L900 19L900 0L771 0L643 0L514 0L386 0L257 0L129 0L0 0Z" fill="#75cf96"></path><path d="M0 18L129 34L257 24L386 34L514 14L643 44L771 37L900 2L900 0L771 0L643 0L514 0L386 0L257 0L129 0L0 0Z" fill="#6dc98e"></path></svg>