<svg id="visual" viewBox="0 0 900 300" width="900" height="300" xmlns="http://www.w3.org/2000/svg" xmlns:xlink="http://www.w3.org/1999/xlink" version="1.1"><rect x="0" y="0" width="900" height="300" fill="#0D8F1B"></rect><path d="M0 105L21.5 106.3C43 107.7 86 110.3 128.8 106.5C171.7 102.7 214.3 92.3 257.2 93.7C300 95 343 108 385.8 107.3C428.7 106.7 471.3 92.3 514.2 84.8C557 77.3 600 76.7 642.8 82C685.7 87.3 728.3 98.7 771.2 98.5C814 98.3 857 86.7 878.5 80.8L900 75L900 0L878.5 0C857 0 814 0 771.2 0C728.3 0 685.7 0 642.8 0C600 0 557 0 514.2 0C471.3 0 428.7 0 385.8 0C343 0 300 0 257.2 0C214.3 0 171.7 0 128.8 0C86 0 43 0 21.5 0L0 0Z" fill="#0d8f1b"></path><path d="M0 96L21.5 93C43 90 86 84 128.8 80.3C171.7 76.7 214.3 75.3 257.2 77.2C300 79 343 84 385.8 86.8C428.7 89.7 471.3 90.3 514.2 87C557 83.7 600 76.3 642.8 76.7C685.7 77 728.3 85 771.2 89.2C814 93.3 857 93.7 878.5 93.8L900 94L900 0L878.5 0C857 0 814 0 771.2 0C728.3 0 685.7 0 642.8 0C600 0 557 0 514.2 0C471.3 0 428.7 0 385.8 0C343 0 300 0 257.2 0C214.3 0 171.7 0 128.8 0C86 0 43 0 21.5 0L0 0Z" fill="#36a11c"></path><path d="M0 71L21.5 69.2C43 67.3 86 63.7 128.8 64.8C171.7 66 214.3 72 257.2 73.3C300 74.7 343 71.3 385.8 70C428.7 68.7 471.3 69.3 514.2 68C557 66.7 600 63.3 642.8 59.7C685.7 56 728.3 52 771.2 52.5C814 53 857 58 878.5 60.5L900 63L900 0L878.5 0C857 0 814 0 771.2 0C728.3 0 685.7 0 642.8 0C600 0 557 0 514.2 0C471.3 0 428.7 0 385.8 0C343 0 300 0 257.2 0C214.3 0 171.7 0 128.8 0C86 0 43 0 21.5 0L0 0Z" fill="#53b31c"></path><path d="M0 39L21.5 39.3C43 39.7 86 40.3 128.8 40.8C171.7 41.3 214.3 41.7 257.2 40.5C300 39.3 343 36.7 385.8 36.3C428.7 36 471.3 38 514.2 41.5C557 45 600 50 642.8 48.2C685.7 46.3 728.3 37.7 771.2 35.5C814 33.3 857 37.7 878.5 39.8L900 42L900 0L878.5 0C857 0 814 0 771.2 0C728.3 0 685.7 0 642.8 0C600 0 557 0 514.2 0C471.3 0 428.7 0 385.8 0C343 0 300 0 257.2 0C214.3 0 171.7 0 128.8 0C86 0 43 0 21.5 0L0 0Z" fill="#6fc51b"></path><path d="M0 30L21.5 29.3C43 28.7 86 27.3 128.8 27C171.7 26.7 214.3 27.3 257.2 27C300 26.7 343 25.3 385.8 23.5C428.7 21.7 471.3 19.3 514.2 17.5C557 15.7 600 14.3 642.8 15.7C685.7 17 728.3 21 771.2 23.7C814 26.3 857 27.7 878.5 28.3L900 29L900 0L878.5 0C857 0 814 0 771.2 0C728.3 0 685.7 0 642.8 0C600 0 557 0 514.2 0C471.3 0 428.7 0 385.8 0C343 0 300 0 257.2 0C214.3 0 171.7 0 128.8 0C86 0 43 0 21.5 0L0 0Z" fill="#8bd71a"></path></svg>