<svg id="visual" viewBox="0 0 900 300" width="900" height="300" xmlns="http://www.w3.org/2000/svg" xmlns:xlink="http://www.w3.org/1999/xlink" version="1.1"><rect x="0" y="0" width="900" height="300" fill="#fff"></rect><path d="M0 92L113 97L225 63L338 122L450 79L563 71L675 107L788 119L900 113L900 0L788 0L675 0L563 0L450 0L338 0L225 0L113 0L0 0Z" fill="#8bd71a"></path><path d="M0 83L113 51L225 89L338 123L450 86L563 114L675 90L788 51L900 46L900 0L788 0L675 0L563 0L450 0L338 0L225 0L113 0L0 0Z" fill="#75c91b"></path><path d="M0 56L113 62L225 86L338 85L450 42L563 97L675 37L788 37L900 40L900 0L788 0L675 0L563 0L450 0L338 0L225 0L113 0L0 0Z" fill="#5eba1c"></path><path d="M0 34L113 46L225 27L338 45L450 57L563 33L675 53L788 46L900 48L900 0L788 0L675 0L563 0L450 0L338 0L225 0L113 0L0 0Z" fill="#48ac1c"></path><path d="M0 36L113 29L225 27L338 36L450 59L563 57L675 16L788 57L900 31L900 0L788 0L675 0L563 0L450 0L338 0L225 0L113 0L0 0Z" fill="#2f9d1c"></path><path d="M0 29L113 19L225 32L338 10L450 1L563 27L675 22L788 19L900 31L900 0L788 0L675 0L563 0L450 0L338 0L225 0L113 0L0 0Z" fill="#0d8f1b"></path></svg>